<?xml version="1.0" encoding="iso-8859-1"?>
<!-- Generator: Adobe Illustrator 19.0.0, SVG Export Plug-In . SVG Version: 6.00 Build 0)  -->
<svg version="1.1" id="Layer_1" xmlns="http://www.w3.org/2000/svg" xmlns:xlink="http://www.w3.org/1999/xlink" x="0px" y="0px"
	 viewBox="0 0 473.931 473.931" style="enable-background:new 0 0 473.931 473.931;" xml:space="preserve">
<circle style="fill:#4ABC96;" cx="236.966" cy="236.966" r="236.966"/>
<path style="fill:#AAB6B3;" d="M78.719,160.563l-0.022,146.542c0,7.629,6.204,13.818,13.818,13.818h280.86
	c7.637,0,13.826-6.189,13.826-13.818l-0.269-146.819l-152.944,84.017L78.719,160.563"/>
<path style="fill:#D8D8D8;" d="M78.719,173.214l155.268,89.922l152.944-89.78l0.269,145.409c0,7.629-6.189,13.815-13.826,13.815
	H92.515c-7.614,0-13.818-6.189-13.818-13.815L78.719,173.214z"/>
<g>
	<path style="fill:#E5E5E5;" d="M233.987,263.136l152.944-89.78l0.269,145.409c0,7.629-6.189,13.815-13.826,13.815L233.987,263.136z
		"/>
	<path style="fill:#E5E5E5;" d="M78.719,173.214l155.268,89.922L92.515,332.583c-7.614,0-13.818-6.189-13.818-13.815L78.719,173.214
		z"/>
</g>
<path style="fill:#E1E1E1;" d="M387.201,164.772c0-7.626-6.189-13.815-13.826-13.815H92.515c-7.614,0-13.818,6.189-13.818,13.815
	l155.291,82.974L387.201,164.772z"/>
<g>
</g>
<g>
</g>
<g>
</g>
<g>
</g>
<g>
</g>
<g>
</g>
<g>
</g>
<g>
</g>
<g>
</g>
<g>
</g>
<g>
</g>
<g>
</g>
<g>
</g>
<g>
</g>
<g>
</g>
</svg>
